<svg width="40" height="40" viewBox="0 0 40 40" fill="none" xmlns="http://www.w3.org/2000/svg">
<path d="M5 10.5C5 9.04131 5.57946 7.64236 6.61091 6.61091C7.64236 5.57946 9.04131 5 10.5 5H29.5C30.9587 5 32.3576 5.57946 33.3891 6.61091C34.4205 7.64236 35 9.04131 35 10.5V19.78C34.0747 19.1758 33.0632 18.7153 32 18.414V14H8V29.5C8 30.88 9.12 32 10.5 32H18.414C18.718 33.076 19.182 34.086 19.778 35H10.5C9.04131 35 7.64236 34.4205 6.61091 33.3891C5.57946 32.3576 5 30.9587 5 29.5V10.5ZM18 29V17C18 16.7348 17.8946 16.4804 17.7071 16.2929C17.5196 16.1054 17.2652 16 17 16H11C10.7348 16 10.4804 16.1054 10.2929 16.2929C10.1054 16.4804 10 16.7348 10 17V29C10 29.2652 10.1054 29.5196 10.2929 29.7071C10.4804 29.8946 10.7348 30 11 30H17C17.2652 30 17.5196 29.8946 17.7071 29.7071C17.8946 29.5196 18 29.2652 18 29ZM12 28V18H16V28H12ZM19.996 17C19.996 16.7348 20.1014 16.4804 20.2889 16.2929C20.4764 16.1054 20.7308 16 20.996 16H29C29.2652 16 29.5196 16.1054 29.7071 16.2929C29.8946 16.4804 30 16.7348 30 17C30 17.2652 29.8946 17.5196 29.7071 17.7071C29.5196 17.8946 29.2652 18 29 18H20.996C20.7308 18 20.4764 17.8946 20.2889 17.7071C20.1014 17.5196 19.996 17.2652 19.996 17ZM29 31C28.4696 31 27.9609 30.7893 27.5858 30.4142C27.2107 30.0391 27 29.5304 27 29C27 28.4696 27.2107 27.9609 27.5858 27.5858C27.9609 27.2107 28.4696 27 29 27C29.5304 27 30.0391 27.2107 30.4142 27.5858C30.7893 27.9609 31 28.4696 31 29C31 29.5304 30.7893 30.0391 30.4142 30.4142C30.0391 30.7893 29.5304 31 29 31Z" fill="#009A44"/>
<path fill-rule="evenodd" clip-rule="evenodd" d="M34.5744 22.1853C33.9731 21.7104 33.3099 21.3106 32.5987 21C31.9499 22.333 30.5822 23.2517 29 23.2517C27.4178 23.2517 26.0501 22.333 25.4013 21C24.6188 21.3417 23.8943 21.7915 23.2467 22.3305C23.7184 22.9269 24 23.6806 24 24.5C24 26.433 22.433 28 20.5 28C20.3612 28 20.2243 27.9919 20.0897 27.9762C20.0306 28.3929 20 28.8187 20 29.2517C20 29.5898 20.0186 29.9236 20.055 30.2521C22.2388 30.2815 24 32.0609 24 34.2517C24 35.0078 23.7902 35.7149 23.4256 36.318C24.0269 36.7929 24.6901 37.1928 25.4013 37.5034C26.0501 36.1703 27.4178 35.2517 29 35.2517C30.5822 35.2517 31.9499 36.1703 32.5987 37.5034C33.3099 37.1928 33.9731 36.7929 34.5744 36.318C34.2098 35.7149 34 35.0078 34 34.2517C34 32.0609 35.7612 30.2815 37.945 30.2521C37.9814 29.9236 38 29.5898 38 29.2517C38 28.9135 37.9814 28.5798 37.945 28.2513C35.7612 28.2219 34 26.4425 34 24.2517C34 23.4956 34.2098 22.7884 34.5744 22.1853Z" fill="#FEA020"/>
<circle cx="29" cy="29" r="2" fill="white"/>
<path d="M29 35L13.5 5H4L5 35L23.5 36.5L25.5 37.5C25.9 35.9 28 35.1667 29 35Z" fill="white" fill-opacity="0.15"/>
</svg>
