<svg width="43" height="43" viewBox="0 0 43 43" fill="none" xmlns="http://www.w3.org/2000/svg">
<path d="M20.9752 3.65387C10.8843 3.65387 2.7041 11.6439 2.7041 21.5001C2.7041 31.3562 10.8843 39.3463 20.9752 39.3463C31.066 39.3463 39.2463 31.3562 39.2463 21.5001C39.2463 11.6439 31.066 3.65387 20.9752 3.65387ZM6.31117 22.7646C5.59045 22.7646 5.00611 22.1939 5.00611 21.4899C5.00611 20.7858 5.59045 20.2151 6.31117 20.2151C7.03197 20.2151 7.61627 20.7858 7.61627 21.4899C7.61632 22.1939 7.03197 22.7646 6.31117 22.7646ZM20.9752 5.90234C21.696 5.90234 22.2803 6.4731 22.2803 7.17714C22.2803 7.88114 21.696 8.45189 20.9752 8.45189C20.2544 8.45189 19.6701 7.88114 19.6701 7.17714C19.6701 6.47305 20.2544 5.90234 20.9752 5.90234ZM20.9752 37.2181C20.2544 37.2181 19.6701 36.6473 19.6701 35.9433C19.6701 35.2393 20.2544 34.6685 20.9752 34.6685C21.696 34.6685 22.2803 35.2392 22.2803 35.9433C22.2803 36.6473 21.696 37.2181 20.9752 37.2181ZM31.7 13.8233L24.6598 20.2501C25.2182 21.6301 24.9263 23.2624 23.7836 24.3786C22.2484 25.8781 19.7594 25.8781 18.2243 24.3786C17.0772 23.2582 16.7873 21.6177 17.3544 20.2343L12.5085 15.9509C11.9048 15.3611 11.9048 14.405 12.5085 13.8154C13.1123 13.2257 14.0911 13.2257 14.6949 13.8154L19.5408 18.0989C20.4832 17.7304 21.5421 17.7323 22.4832 18.105L29.5136 11.6877C30.1173 11.098 31.0963 11.098 31.7 11.6877C32.3038 12.2774 32.3038 13.2335 31.7 13.8233ZM35.6391 22.7748C34.9184 22.7748 34.3341 22.2041 34.3341 21.5001C34.3341 20.796 34.9184 20.2253 35.6391 20.2253C36.36 20.2253 36.9443 20.796 36.9443 21.5001C36.9442 22.204 36.36 22.7748 35.6391 22.7748Z" fill="#009A44"/>
<ellipse cx="20.988" cy="21.5" rx="4.60714" ry="4.5" fill="#FEA020"/>
<rect width="13.0153" height="3.29999" rx="1.64999" transform="matrix(0.745441 -0.666571 0.683857 0.729616 21.0146 19.0488)" fill="#FEA020"/>
<rect width="8.89727" height="3.2998" rx="1.6499" transform="matrix(-0.747032 -0.664787 0.682104 -0.731255 17.9673 20.8881)" fill="#FEA020"/>
<ellipse cx="21.0147" cy="7.22821" rx="1.53571" ry="1.5" fill="#FEA020"/>
<ellipse cx="6.37653" cy="21.5" rx="1.53571" ry="1.5" fill="#FEA020"/>
<ellipse cx="20.9879" cy="35.8163" rx="1.53571" ry="1.5" fill="#FEA020"/>
<ellipse cx="35.4761" cy="21.5" rx="1.53572" ry="1.5" fill="#FEA020"/>
<path d="M28 38L14.5 5C2.9 9.4 2 19.8333 3 24.5C6.21429 39.5 20.5 41 28 38Z" fill="white" fill-opacity="0.13"/>
</svg>
