<svg width="40" height="40" viewBox="0 0 40 40" fill="none" xmlns="http://www.w3.org/2000/svg">
<g clip-path="url(#clip0_1107:1846)">
<path d="M28.9587 36.8887L28.6963 36.7505C24.5534 34.5629 21.2057 31.1364 19.2698 27.1034L19.244 27.047C18.774 25.9905 18.2881 24.8981 18.2881 23.5546C18.2881 20.1776 21.0357 17.4299 24.4128 17.4299C26.2146 17.4299 27.8993 18.2158 29.0557 19.564C29.6295 18.8939 30.3418 18.356 31.1434 17.9876C31.945 17.6192 32.817 17.4289 33.6993 17.4299C37.0763 17.4299 39.824 20.1776 39.824 23.5546C39.824 24.7564 39.3816 25.7387 38.9534 26.6887L38.7828 27.0699C36.7734 31.207 33.3822 34.6387 29.2234 36.7546L28.9587 36.8887V36.8887Z" fill="#FEA020"/>
<path d="M18.2279 27.5782L18.1973 27.5105C17.7032 26.4 17.1432 25.1405 17.1432 23.5541C17.1432 21.8158 17.7579 20.2188 18.7797 18.9664C18.2288 18.7799 17.667 18.6274 17.0973 18.51C19.9867 17.3653 22.0385 14.5494 22.0385 11.2576C22.0385 6.95467 18.5379 3.45349 14.235 3.45349C9.93204 3.45349 6.43145 6.95467 6.43145 11.2576C6.43145 14.5482 8.48204 17.3641 11.3697 18.5088C4.94792 19.837 0.10498 25.5376 0.10498 32.3476C0.10498 34.0029 1.26675 34.5517 2.20027 34.9929L2.2538 35.0153C6.01792 36.3435 11.4615 36.6982 14.085 36.6982C16.5467 36.6982 21.0344 36.3529 24.5973 35.4429C21.885 33.3082 19.6838 30.6123 18.2279 27.5782Z" fill="#009A44"/>
<path d="M9.4999 36.5L17 4.00002C12 2 8.41666 5.5 7.5 7.5C4.3 13.5 8.83333 17.3333 11.5 18.5C2.3 20.5 -6.93109e-05 28.6667 -0.000103967 32.5C-0.400104 34.9 6.16656 36.1667 9.4999 36.5Z" fill="white" fill-opacity="0.15"/>
</g>
<defs>
<clipPath id="clip0_1107:1846">
<rect width="40" height="40" fill="white"/>
</clipPath>
</defs>
</svg>
