<svg width="42" height="42" viewBox="0 0 42 42" fill="none" xmlns="http://www.w3.org/2000/svg">
<path d="M29.6332 21.9334V36.6334C29.6332 37.3334 29.3999 37.5668 28.6999 37.5668H7.23324C5.5999 37.5668 4.8999 36.6334 4.8999 35.2334V7.46676C4.8999 5.83342 5.83324 5.13342 7.46657 5.13342H27.2999C28.9332 5.13342 29.6332 5.83342 29.6332 7.70009V21.9334ZM17.2666 14.4668H24.4999C25.1999 14.4668 25.6666 13.7668 25.6666 13.0668C25.6666 12.3668 25.1999 11.6668 24.4999 11.6668H10.0332C9.56657 11.6668 9.0999 12.1334 9.0999 12.8334C9.0999 13.5334 9.33324 14.0001 10.0332 14.2334C10.2666 14.4668 10.7332 14.4668 11.1999 14.4668H17.2666V14.4668ZM15.8666 22.6334H20.9999C21.9332 22.6334 22.6332 22.1668 22.6332 21.2334C22.6332 20.3001 21.9332 19.8334 20.9999 19.8334H10.4999C9.56657 19.8334 8.86657 20.3001 8.86657 21.2334C8.86657 22.1668 9.56657 22.6334 10.4999 22.6334H15.8666ZM16.0999 28.0001H10.4999C9.7999 28.0001 9.33324 28.7001 9.33324 29.4001C9.33324 30.1001 9.7999 30.5668 10.4999 30.8001H22.1666C22.8666 30.5668 23.3332 30.1001 23.0999 29.4001C23.0999 28.7001 22.3999 28.2334 21.4666 28.2334C19.5999 28.0001 17.7332 28.0001 16.0999 28.0001V28.0001ZM32.4332 24.5001V12.3668C32.4332 11.6668 32.6666 11.4334 33.1332 11.6668H34.5332C35.6999 11.9001 36.3999 12.6001 36.3999 13.7668V35.2334C36.3999 36.4001 35.4666 37.3334 34.2999 37.3334C32.4332 37.3334 32.4332 37.3334 32.4332 35.4668V24.5001Z" fill="#009A44"/>
<path d="M32 11H34.3999C35.5045 11 36.3999 11.8954 36.3999 13V35.5668C36.3999 36.6713 35.5045 37.5668 34.3999 37.5668H32V11Z" fill="#FEA020"/>
<path d="M25 37.5L9 5.00001L8 5C6 5 5.16667 6.16667 5 7V35.5C5 37.5 6.66667 37.6667 7.5 37.5H25Z" fill="white" fill-opacity="0.15"/>
</svg>
