<svg width="42" height="42" viewBox="0 0 42 42" fill="none" xmlns="http://www.w3.org/2000/svg">
<path d="M5 13.8889C5 12.5923 5.44908 11.3488 6.24846 10.4319C7.04783 9.51508 8.13201 9 9.2625 9H31.7375C32.868 9 33.9522 9.51508 34.7515 10.4319C35.5509 11.3488 36 12.5923 36 13.8889V17H5V13.8889Z" fill="#FEA020"/>
<path d="M8 9L12.5 17H5V13.5C5.4 9.9 6.66667 9 8 9Z" fill="white" fill-opacity="0.15"/>
<path d="M5 19H36V28.1875C36 29.4639 35.5509 30.6879 34.7515 31.5905C33.9522 32.493 32.868 33 31.7375 33H9.2625C8.13201 33 7.04783 32.493 6.24846 31.5905C5.44908 30.6879 5 29.4639 5 28.1875V19ZM26.3125 25.125C26.0042 25.125 25.7085 25.2633 25.4905 25.5094C25.2725 25.7556 25.15 26.0894 25.15 26.4375C25.15 26.7856 25.2725 27.1194 25.4905 27.3656C25.7085 27.6117 26.0042 27.75 26.3125 27.75H30.1875C30.4958 27.75 30.7915 27.6117 31.0095 27.3656C31.2275 27.1194 31.35 26.7856 31.35 26.4375C31.35 26.0894 31.2275 25.7556 31.0095 25.5094C30.7915 25.2633 30.4958 25.125 30.1875 25.125H26.3125Z" fill="#009A44"/>
<path d="M23 33L13.5 19H5V29C5.8 32.6 8.33333 33.1667 9.5 33H23Z" fill="white" fill-opacity="0.15"/>
</svg>
